<svg xmlns="http://www.w3.org/2000/svg" xmlns:xlink="http://www.w3.org/1999/xlink" width="500" zoomAndPan="magnify" viewBox="0 0 375 374.999991" height="500" preserveAspectRatio="xMidYMid meet" version="1.0"><defs><g/><clipPath id="be87c64cb5"><path d="M 37.5 118.371094 L 135 118.371094 L 135 213.621094 L 37.5 213.621094 Z M 37.5 118.371094 " clip-rule="nonzero"/></clipPath><clipPath id="daa790c2b9"><path d="M 75.105469 169.140625 L 113.5 169.140625 L 122.441406 160.136719 L 122.441406 138.371094 C 123.339844 137.535156 123.902344 136.335938 123.902344 135.023438 C 123.902344 132.488281 121.859375 130.40625 119.320312 130.40625 C 116.804688 130.40625 114.734375 132.464844 114.734375 135.023438 C 114.734375 136.359375 115.296875 137.535156 116.195312 138.371094 L 116.195312 157.511719 L 110.917969 162.828125 L 72.480469 162.828125 L 63.964844 171.628906 L 63.964844 205.835938 L 45.429688 205.835938 C 44.597656 204.933594 43.410156 204.367188 42.105469 204.367188 C 39.589844 204.367188 37.523438 206.425781 37.523438 208.984375 C 37.523438 211.515625 39.566406 213.597656 42.105469 213.597656 C 43.429688 213.597656 44.597656 213.03125 45.429688 212.148438 L 70.210938 212.148438 L 70.210938 180.679688 L 103.75 180.679688 L 103.75 205.65625 C 102.851562 206.492188 102.289062 207.691406 102.289062 209.003906 C 102.289062 211.539062 104.335938 213.621094 106.875 213.621094 C 109.390625 213.621094 111.457031 211.5625 111.457031 209.003906 C 111.457031 207.671875 110.894531 206.492188 109.996094 205.65625 L 109.996094 174.390625 L 70.210938 174.390625 L 70.210938 174.207031 Z M 103.75 119.84375 L 103.75 151.3125 L 70.210938 151.3125 L 70.210938 119.84375 L 51.449219 119.84375 L 51.449219 147.195312 C 50.550781 148.03125 49.992188 149.230469 49.992188 150.542969 C 49.992188 153.078125 52.035156 155.160156 54.574219 155.160156 C 57.113281 155.160156 59.15625 153.101562 59.15625 150.542969 C 59.15625 149.207031 58.59375 148.03125 57.695312 147.195312 L 57.695312 126.132812 L 63.941406 126.132812 L 63.941406 153.191406 L 51.472656 166.425781 L 51.472656 193.847656 L 45.207031 193.847656 L 45.207031 126.335938 C 46.105469 125.5 46.664062 124.300781 46.664062 122.988281 C 46.664062 120.453125 44.621094 118.371094 42.082031 118.371094 C 39.566406 118.371094 37.5 120.429688 37.5 122.988281 C 37.5 124.320312 38.0625 125.5 38.960938 126.335938 L 38.960938 200.160156 L 57.695312 200.160156 L 57.71875 168.960938 L 68.414062 157.625 L 109.972656 157.625 L 109.972656 126.132812 L 128.753906 126.132812 L 128.753906 205.859375 L 122.507812 205.859375 L 122.507812 180.835938 C 123.363281 180 123.902344 178.824219 123.902344 177.535156 C 123.902344 175 121.859375 172.917969 119.320312 172.917969 C 116.804688 172.917969 114.734375 174.976562 114.734375 177.535156 C 114.734375 178.890625 115.320312 180.089844 116.242188 180.949219 L 116.242188 212.171875 L 135 212.171875 L 135 119.863281 Z M 103.75 119.84375 " clip-rule="nonzero"/></clipPath><linearGradient x1="31.800001" gradientTransform="matrix(0.224654, 0, 0, 0.226245, 30.355993, 108.824007)" y1="252.7" x2="465.799979" gradientUnits="userSpaceOnUse" y2="252.7" id="d4608073e1"><stop stop-opacity="1" stop-color="rgb(54.899597%, 96.078491%, 92.158508%)" offset="0"/><stop stop-opacity="1" stop-color="rgb(54.76532%, 95.933533%, 92.214966%)" offset="0.0078125"/><stop stop-opacity="1" stop-color="rgb(54.499817%, 95.645142%, 92.329407%)" offset="0.015625"/><stop stop-opacity="1" stop-color="rgb(54.234314%, 95.35675%, 92.442322%)" offset="0.0234375"/><stop stop-opacity="1" stop-color="rgb(53.967285%, 95.068359%, 92.555237%)" offset="0.03125"/><stop stop-opacity="1" stop-color="rgb(53.701782%, 94.778442%, 92.668152%)" offset="0.0390625"/><stop stop-opacity="1" stop-color="rgb(53.434753%, 94.490051%, 92.781067%)" offset="0.046875"/><stop stop-opacity="1" stop-color="rgb(53.16925%, 94.20166%, 92.895508%)" offset="0.0546875"/><stop stop-opacity="1" stop-color="rgb(52.902222%, 93.913269%, 93.008423%)" offset="0.0625"/><stop stop-opacity="1" stop-color="rgb(52.636719%, 93.623352%, 93.121338%)" offset="0.0703125"/><stop stop-opacity="1" stop-color="rgb(52.371216%, 93.334961%, 93.234253%)" offset="0.078125"/><stop stop-opacity="1" stop-color="rgb(52.104187%, 93.04657%, 93.347168%)" offset="0.0859375"/><stop stop-opacity="1" stop-color="rgb(51.838684%, 92.756653%, 93.461609%)" offset="0.09375"/><stop stop-opacity="1" stop-color="rgb(51.571655%, 92.468262%, 93.574524%)" offset="0.101562"/><stop stop-opacity="1" stop-color="rgb(51.306152%, 92.179871%, 93.687439%)" offset="0.109375"/><stop stop-opacity="1" stop-color="rgb(51.039124%, 91.891479%, 93.800354%)" offset="0.117188"/><stop stop-opacity="1" stop-color="rgb(50.773621%, 91.601562%, 93.913269%)" offset="0.125"/><stop stop-opacity="1" stop-color="rgb(50.508118%, 91.313171%, 94.02771%)" offset="0.132812"/><stop stop-opacity="1" stop-color="rgb(50.241089%, 91.02478%, 94.140625%)" offset="0.140625"/><stop stop-opacity="1" stop-color="rgb(49.975586%, 90.734863%, 94.25354%)" offset="0.148438"/><stop stop-opacity="1" stop-color="rgb(49.708557%, 90.446472%, 94.366455%)" offset="0.15625"/><stop stop-opacity="1" stop-color="rgb(49.443054%, 90.158081%, 94.47937%)" offset="0.164063"/><stop stop-opacity="1" stop-color="rgb(49.177551%, 89.86969%, 94.593811%)" offset="0.171875"/><stop stop-opacity="1" stop-color="rgb(48.910522%, 89.579773%, 94.706726%)" offset="0.179688"/><stop stop-opacity="1" stop-color="rgb(48.64502%, 89.291382%, 94.819641%)" offset="0.1875"/><stop stop-opacity="1" stop-color="rgb(48.377991%, 89.002991%, 94.932556%)" offset="0.195313"/><stop stop-opacity="1" stop-color="rgb(48.112488%, 88.7146%, 95.045471%)" offset="0.203125"/><stop stop-opacity="1" stop-color="rgb(47.845459%, 88.424683%, 95.159912%)" offset="0.210938"/><stop stop-opacity="1" stop-color="rgb(47.579956%, 88.136292%, 95.272827%)" offset="0.21875"/><stop stop-opacity="1" stop-color="rgb(47.314453%, 87.8479%, 95.385742%)" offset="0.226563"/><stop stop-opacity="1" stop-color="rgb(47.047424%, 87.557983%, 95.498657%)" offset="0.234375"/><stop stop-opacity="1" stop-color="rgb(46.781921%, 87.269592%, 95.611572%)" offset="0.242188"/><stop stop-opacity="1" stop-color="rgb(46.514893%, 86.981201%, 95.726013%)" offset="0.25"/><stop stop-opacity="1" stop-color="rgb(46.24939%, 86.69281%, 95.838928%)" offset="0.257812"/><stop stop-opacity="1" stop-color="rgb(45.982361%, 86.402893%, 95.951843%)" offset="0.265625"/><stop stop-opacity="1" stop-color="rgb(45.716858%, 86.114502%, 96.064758%)" offset="0.273438"/><stop stop-opacity="1" stop-color="rgb(45.451355%, 85.826111%, 96.177673%)" offset="0.28125"/><stop stop-opacity="1" stop-color="rgb(45.184326%, 85.536194%, 96.292114%)" offset="0.289062"/><stop stop-opacity="1" stop-color="rgb(44.918823%, 85.247803%, 96.405029%)" offset="0.296875"/><stop stop-opacity="1" stop-color="rgb(44.651794%, 84.959412%, 96.517944%)" offset="0.304688"/><stop stop-opacity="1" stop-color="rgb(44.386292%, 84.671021%, 96.630859%)" offset="0.3125"/><stop stop-opacity="1" stop-color="rgb(44.120789%, 84.381104%, 96.743774%)" offset="0.320313"/><stop stop-opacity="1" stop-color="rgb(43.85376%, 84.092712%, 96.858215%)" offset="0.328125"/><stop stop-opacity="1" stop-color="rgb(43.588257%, 83.804321%, 96.97113%)" offset="0.335938"/><stop stop-opacity="1" stop-color="rgb(43.321228%, 83.514404%, 97.084045%)" offset="0.34375"/><stop stop-opacity="1" stop-color="rgb(43.055725%, 83.226013%, 97.19696%)" offset="0.351563"/><stop stop-opacity="1" stop-color="rgb(42.788696%, 82.937622%, 97.309875%)" offset="0.359375"/><stop stop-opacity="1" stop-color="rgb(42.523193%, 82.649231%, 97.424316%)" offset="0.367188"/><stop stop-opacity="1" stop-color="rgb(42.25769%, 82.359314%, 97.537231%)" offset="0.375"/><stop stop-opacity="1" stop-color="rgb(41.990662%, 82.070923%, 97.650146%)" offset="0.382813"/><stop stop-opacity="1" stop-color="rgb(41.725159%, 81.782532%, 97.763062%)" offset="0.390625"/><stop stop-opacity="1" stop-color="rgb(41.45813%, 81.494141%, 97.875977%)" offset="0.398438"/><stop stop-opacity="1" stop-color="rgb(41.192627%, 81.204224%, 97.990417%)" offset="0.40625"/><stop stop-opacity="1" stop-color="rgb(40.925598%, 80.915833%, 98.103333%)" offset="0.414063"/><stop stop-opacity="1" stop-color="rgb(40.660095%, 80.627441%, 98.216248%)" offset="0.421875"/><stop stop-opacity="1" stop-color="rgb(40.394592%, 80.337524%, 98.329163%)" offset="0.429688"/><stop stop-opacity="1" stop-color="rgb(40.127563%, 80.049133%, 98.442078%)" offset="0.4375"/><stop stop-opacity="1" stop-color="rgb(39.862061%, 79.760742%, 98.556519%)" offset="0.445312"/><stop stop-opacity="1" stop-color="rgb(39.595032%, 79.472351%, 98.669434%)" offset="0.453125"/><stop stop-opacity="1" stop-color="rgb(39.329529%, 79.182434%, 98.782349%)" offset="0.460938"/><stop stop-opacity="1" stop-color="rgb(39.064026%, 78.894043%, 98.895264%)" offset="0.46875"/><stop stop-opacity="1" stop-color="rgb(38.796997%, 78.605652%, 99.008179%)" offset="0.476562"/><stop stop-opacity="1" stop-color="rgb(38.531494%, 78.315735%, 99.12262%)" offset="0.484375"/><stop stop-opacity="1" stop-color="rgb(38.264465%, 78.027344%, 99.235535%)" offset="0.492188"/><stop stop-opacity="1" stop-color="rgb(37.998962%, 77.738953%, 99.34845%)" offset="0.5"/><stop stop-opacity="1" stop-color="rgb(37.731934%, 77.450562%, 99.461365%)" offset="0.507813"/><stop stop-opacity="1" stop-color="rgb(37.466431%, 77.160645%, 99.57428%)" offset="0.515625"/><stop stop-opacity="1" stop-color="rgb(37.200928%, 76.872253%, 99.688721%)" offset="0.523438"/><stop stop-opacity="1" stop-color="rgb(36.933899%, 76.583862%, 99.801636%)" offset="0.53125"/><stop stop-opacity="1" stop-color="rgb(36.668396%, 76.295471%, 99.914551%)" offset="0.539062"/><stop stop-opacity="1" stop-color="rgb(36.268616%, 75.828552%, 99.755859%)" offset="0.542969"/><stop stop-opacity="1" stop-color="rgb(36.003113%, 75.506592%, 99.542236%)" offset="0.546875"/><stop stop-opacity="1" stop-color="rgb(35.691833%, 75.126648%, 99.238586%)" offset="0.550781"/><stop stop-opacity="1" stop-color="rgb(35.38208%, 74.746704%, 98.934937%)" offset="0.554688"/><stop stop-opacity="1" stop-color="rgb(35.070801%, 74.365234%, 98.631287%)" offset="0.558594"/><stop stop-opacity="1" stop-color="rgb(34.761047%, 73.985291%, 98.327637%)" offset="0.5625"/><stop stop-opacity="1" stop-color="rgb(34.449768%, 73.603821%, 98.023987%)" offset="0.566406"/><stop stop-opacity="1" stop-color="rgb(34.140015%, 73.223877%, 97.720337%)" offset="0.570312"/><stop stop-opacity="1" stop-color="rgb(33.828735%, 72.842407%, 97.416687%)" offset="0.574219"/><stop stop-opacity="1" stop-color="rgb(33.518982%, 72.462463%, 97.113037%)" offset="0.578125"/><stop stop-opacity="1" stop-color="rgb(33.209229%, 72.08252%, 96.809387%)" offset="0.582031"/><stop stop-opacity="1" stop-color="rgb(32.899475%, 71.702576%, 96.505737%)" offset="0.585938"/><stop stop-opacity="1" stop-color="rgb(32.588196%, 71.321106%, 96.200562%)" offset="0.589844"/><stop stop-opacity="1" stop-color="rgb(32.278442%, 70.941162%, 95.896912%)" offset="0.59375"/><stop stop-opacity="1" stop-color="rgb(31.967163%, 70.559692%, 95.593262%)" offset="0.597656"/><stop stop-opacity="1" stop-color="rgb(31.65741%, 70.179749%, 95.289612%)" offset="0.601562"/><stop stop-opacity="1" stop-color="rgb(31.34613%, 69.798279%, 94.985962%)" offset="0.605469"/><stop stop-opacity="1" stop-color="rgb(31.036377%, 69.418335%, 94.682312%)" offset="0.609375"/><stop stop-opacity="1" stop-color="rgb(30.725098%, 69.038391%, 94.378662%)" offset="0.613281"/><stop stop-opacity="1" stop-color="rgb(30.415344%, 68.658447%, 94.075012%)" offset="0.617188"/><stop stop-opacity="1" stop-color="rgb(30.104065%, 68.276978%, 93.771362%)" offset="0.621094"/><stop stop-opacity="1" stop-color="rgb(29.794312%, 67.897034%, 93.467712%)" offset="0.625"/><stop stop-opacity="1" stop-color="rgb(29.484558%, 67.515564%, 93.164062%)" offset="0.628906"/><stop stop-opacity="1" stop-color="rgb(29.174805%, 67.13562%, 92.860413%)" offset="0.632812"/><stop stop-opacity="1" stop-color="rgb(28.863525%, 66.755676%, 92.556763%)" offset="0.636719"/><stop stop-opacity="1" stop-color="rgb(28.553772%, 66.375732%, 92.253113%)" offset="0.640625"/><stop stop-opacity="1" stop-color="rgb(28.242493%, 65.994263%, 91.949463%)" offset="0.644531"/><stop stop-opacity="1" stop-color="rgb(27.932739%, 65.614319%, 91.645813%)" offset="0.648438"/><stop stop-opacity="1" stop-color="rgb(27.62146%, 65.232849%, 91.342163%)" offset="0.652344"/><stop stop-opacity="1" stop-color="rgb(27.311707%, 64.852905%, 91.038513%)" offset="0.65625"/><stop stop-opacity="1" stop-color="rgb(27.000427%, 64.471436%, 90.733337%)" offset="0.660156"/><stop stop-opacity="1" stop-color="rgb(26.690674%, 64.091492%, 90.429688%)" offset="0.664063"/><stop stop-opacity="1" stop-color="rgb(26.38092%, 63.711548%, 90.126038%)" offset="0.667969"/><stop stop-opacity="1" stop-color="rgb(26.071167%, 63.331604%, 89.822388%)" offset="0.671875"/><stop stop-opacity="1" stop-color="rgb(25.759888%, 62.950134%, 89.518738%)" offset="0.675781"/><stop stop-opacity="1" stop-color="rgb(25.450134%, 62.57019%, 89.215088%)" offset="0.679688"/><stop stop-opacity="1" stop-color="rgb(25.138855%, 62.188721%, 88.911438%)" offset="0.683594"/><stop stop-opacity="1" stop-color="rgb(24.829102%, 61.808777%, 88.607788%)" offset="0.6875"/><stop stop-opacity="1" stop-color="rgb(24.517822%, 61.427307%, 88.304138%)" offset="0.691406"/><stop stop-opacity="1" stop-color="rgb(24.208069%, 61.047363%, 88.000488%)" offset="0.695313"/><stop stop-opacity="1" stop-color="rgb(23.89679%, 60.667419%, 87.696838%)" offset="0.699219"/><stop stop-opacity="1" stop-color="rgb(23.587036%, 60.287476%, 87.393188%)" offset="0.703125"/><stop stop-opacity="1" stop-color="rgb(23.277283%, 59.906006%, 87.089539%)" offset="0.707031"/><stop stop-opacity="1" stop-color="rgb(22.967529%, 59.526062%, 86.785889%)" offset="0.710938"/><stop stop-opacity="1" stop-color="rgb(22.65625%, 59.144592%, 86.482239%)" offset="0.714844"/><stop stop-opacity="1" stop-color="rgb(22.346497%, 58.764648%, 86.178589%)" offset="0.71875"/><stop stop-opacity="1" stop-color="rgb(22.035217%, 58.384705%, 85.874939%)" offset="0.722656"/><stop stop-opacity="1" stop-color="rgb(21.725464%, 58.004761%, 85.571289%)" offset="0.726562"/><stop stop-opacity="1" stop-color="rgb(21.414185%, 57.623291%, 85.266113%)" offset="0.730469"/><stop stop-opacity="1" stop-color="rgb(21.104431%, 57.243347%, 84.962463%)" offset="0.734375"/><stop stop-opacity="1" stop-color="rgb(20.793152%, 56.861877%, 84.658813%)" offset="0.738281"/><stop stop-opacity="1" stop-color="rgb(20.483398%, 56.481934%, 84.355164%)" offset="0.742188"/><stop stop-opacity="1" stop-color="rgb(20.172119%, 56.100464%, 84.051514%)" offset="0.746094"/><stop stop-opacity="1" stop-color="rgb(19.862366%, 55.72052%, 83.747864%)" offset="0.75"/><stop stop-opacity="1" stop-color="rgb(19.552612%, 55.340576%, 83.444214%)" offset="0.753906"/><stop stop-opacity="1" stop-color="rgb(19.242859%, 54.960632%, 83.140564%)" offset="0.757812"/><stop stop-opacity="1" stop-color="rgb(18.93158%, 54.579163%, 82.836914%)" offset="0.761719"/><stop stop-opacity="1" stop-color="rgb(18.621826%, 54.199219%, 82.533264%)" offset="0.765625"/><stop stop-opacity="1" stop-color="rgb(18.310547%, 53.817749%, 82.229614%)" offset="0.769531"/><stop stop-opacity="1" stop-color="rgb(18.000793%, 53.437805%, 81.925964%)" offset="0.773438"/><stop stop-opacity="1" stop-color="rgb(17.689514%, 53.056335%, 81.622314%)" offset="0.777344"/><stop stop-opacity="1" stop-color="rgb(17.379761%, 52.676392%, 81.318665%)" offset="0.78125"/><stop stop-opacity="1" stop-color="rgb(17.068481%, 52.296448%, 81.015015%)" offset="0.785156"/><stop stop-opacity="1" stop-color="rgb(16.758728%, 51.916504%, 80.711365%)" offset="0.789063"/><stop stop-opacity="1" stop-color="rgb(16.448975%, 51.535034%, 80.407715%)" offset="0.792969"/><stop stop-opacity="1" stop-color="rgb(16.139221%, 51.15509%, 80.104065%)" offset="0.796875"/><stop stop-opacity="1" stop-color="rgb(15.827942%, 50.773621%, 79.798889%)" offset="0.800781"/><stop stop-opacity="1" stop-color="rgb(15.518188%, 50.393677%, 79.495239%)" offset="0.804688"/><stop stop-opacity="1" stop-color="rgb(15.206909%, 50.013733%, 79.191589%)" offset="0.808594"/><stop stop-opacity="1" stop-color="rgb(14.897156%, 49.633789%, 78.887939%)" offset="0.8125"/><stop stop-opacity="1" stop-color="rgb(14.585876%, 49.252319%, 78.58429%)" offset="0.816406"/><stop stop-opacity="1" stop-color="rgb(14.276123%, 48.872375%, 78.28064%)" offset="0.820313"/><stop stop-opacity="1" stop-color="rgb(13.964844%, 48.490906%, 77.97699%)" offset="0.824219"/><stop stop-opacity="1" stop-color="rgb(13.65509%, 48.110962%, 77.67334%)" offset="0.828125"/><stop stop-opacity="1" stop-color="rgb(13.345337%, 47.729492%, 77.36969%)" offset="0.832031"/><stop stop-opacity="1" stop-color="rgb(13.035583%, 47.349548%, 77.06604%)" offset="0.835938"/><stop stop-opacity="1" stop-color="rgb(12.724304%, 46.969604%, 76.76239%)" offset="0.839844"/><stop stop-opacity="1" stop-color="rgb(12.414551%, 46.589661%, 76.45874%)" offset="0.84375"/><stop stop-opacity="1" stop-color="rgb(12.103271%, 46.208191%, 76.15509%)" offset="0.847656"/><stop stop-opacity="1" stop-color="rgb(11.793518%, 45.828247%, 75.85144%)" offset="0.851562"/><stop stop-opacity="1" stop-color="rgb(11.482239%, 45.446777%, 75.547791%)" offset="0.855469"/><stop stop-opacity="1" stop-color="rgb(11.172485%, 45.066833%, 75.244141%)" offset="0.859375"/><stop stop-opacity="1" stop-color="rgb(10.861206%, 44.685364%, 74.940491%)" offset="0.863281"/><stop stop-opacity="1" stop-color="rgb(10.551453%, 44.30542%, 74.636841%)" offset="0.867188"/><stop stop-opacity="1" stop-color="rgb(10.240173%, 43.925476%, 74.331665%)" offset="0.871094"/><stop stop-opacity="1" stop-color="rgb(9.93042%, 43.545532%, 74.028015%)" offset="0.875"/><stop stop-opacity="1" stop-color="rgb(9.620667%, 43.164062%, 73.724365%)" offset="0.878906"/><stop stop-opacity="1" stop-color="rgb(9.310913%, 42.784119%, 73.420715%)" offset="0.882812"/><stop stop-opacity="1" stop-color="rgb(8.999634%, 42.402649%, 73.117065%)" offset="0.886719"/><stop stop-opacity="1" stop-color="rgb(8.68988%, 42.022705%, 72.813416%)" offset="0.890625"/><stop stop-opacity="1" stop-color="rgb(8.378601%, 41.642761%, 72.509766%)" offset="0.894531"/><stop stop-opacity="1" stop-color="rgb(8.068848%, 41.262817%, 72.206116%)" offset="0.898438"/><stop stop-opacity="1" stop-color="rgb(7.757568%, 40.881348%, 71.902466%)" offset="0.902344"/><stop stop-opacity="1" stop-color="rgb(7.447815%, 40.501404%, 71.598816%)" offset="0.90625"/><stop stop-opacity="1" stop-color="rgb(7.136536%, 40.119934%, 71.295166%)" offset="0.910156"/><stop stop-opacity="1" stop-color="rgb(6.826782%, 39.73999%, 70.991516%)" offset="0.914062"/><stop stop-opacity="1" stop-color="rgb(6.517029%, 39.358521%, 70.687866%)" offset="0.917969"/><stop stop-opacity="1" stop-color="rgb(6.207275%, 38.978577%, 70.384216%)" offset="0.921875"/><stop stop-opacity="1" stop-color="rgb(5.895996%, 38.598633%, 70.080566%)" offset="0.925781"/><stop stop-opacity="1" stop-color="rgb(5.586243%, 38.218689%, 69.776917%)" offset="0.929688"/><stop stop-opacity="1" stop-color="rgb(5.274963%, 37.837219%, 69.473267%)" offset="0.933594"/><stop stop-opacity="1" stop-color="rgb(4.96521%, 37.457275%, 69.169617%)" offset="0.9375"/><stop stop-opacity="1" stop-color="rgb(4.653931%, 37.075806%, 68.864441%)" offset="0.941406"/><stop stop-opacity="1" stop-color="rgb(4.344177%, 36.695862%, 68.560791%)" offset="0.945313"/><stop stop-opacity="1" stop-color="rgb(4.032898%, 36.315918%, 68.257141%)" offset="0.949219"/><stop stop-opacity="1" stop-color="rgb(3.723145%, 35.935974%, 67.953491%)" offset="0.953125"/><stop stop-opacity="1" stop-color="rgb(3.413391%, 35.554504%, 67.649841%)" offset="0.957031"/><stop stop-opacity="1" stop-color="rgb(3.103638%, 35.174561%, 67.346191%)" offset="0.960938"/><stop stop-opacity="1" stop-color="rgb(2.792358%, 34.793091%, 67.042542%)" offset="0.964844"/><stop stop-opacity="1" stop-color="rgb(2.482605%, 34.413147%, 66.738892%)" offset="0.96875"/><stop stop-opacity="1" stop-color="rgb(2.171326%, 34.031677%, 66.435242%)" offset="0.972656"/><stop stop-opacity="1" stop-color="rgb(1.861572%, 33.651733%, 66.131592%)" offset="0.976562"/><stop stop-opacity="1" stop-color="rgb(1.550293%, 33.27179%, 65.827942%)" offset="0.980469"/><stop stop-opacity="1" stop-color="rgb(1.24054%, 32.891846%, 65.524292%)" offset="0.984375"/><stop stop-opacity="1" stop-color="rgb(0.92926%, 32.510376%, 65.220642%)" offset="0.988281"/><stop stop-opacity="1" stop-color="rgb(0.619507%, 32.130432%, 64.916992%)" offset="0.992188"/><stop stop-opacity="1" stop-color="rgb(0.309753%, 31.748962%, 64.613342%)" offset="0.996094"/><stop stop-opacity="1" stop-color="rgb(0%, 31.369019%, 64.309692%)" offset="1"/></linearGradient><clipPath id="fac545facc"><rect x="0" width="129" y="0" height="33"/></clipPath></defs><g clip-path="url(#be87c64cb5)"><g clip-path="url(#daa790c2b9)"><path fill="url(#d4608073e1)" d="M 37.5 118.371094 L 37.5 213.621094 L 135 213.621094 L 135 118.371094 Z M 37.5 118.371094 " fill-rule="nonzero"/></g></g><g transform="matrix(1, 0, 0, 1, 175, 149)"><g clip-path="url(#fac545facc)"><g fill="#5cb6f9" fill-opacity="1"><g transform="translate(0.266206, 25.269983)"><g><path d="M 19.015625 -18.359375 L 19.015625 0 L 14.765625 0 L 14.765625 -7.53125 L 6.421875 -7.53125 L 6.421875 0 L 2.171875 0 L 2.171875 -18.359375 L 6.421875 -18.359375 L 6.421875 -11.125 L 14.765625 -11.125 L 14.765625 -18.359375 Z M 19.015625 -18.359375 "/></g></g></g><g fill="#5cb6f9" fill-opacity="1"><g transform="translate(26.652457, 25.269983)"><g><path d="M 14.265625 -3.9375 L 5.75 -3.9375 L 4.125 0 L -0.234375 0 L 7.953125 -18.359375 L 12.140625 -18.359375 L 20.359375 0 L 15.890625 0 Z M 12.9375 -7.15625 L 10.015625 -14.1875 L 7.109375 -7.15625 Z M 12.9375 -7.15625 "/></g></g></g><g fill="#5cb6f9" fill-opacity="1"><g transform="translate(51.937231, 25.269983)"><g><path d="M 17.046875 -3.46875 L 17.046875 0 L 1 0 L 1 -2.75 L 11.078125 -14.90625 L 1.203125 -14.90625 L 1.203125 -18.359375 L 16.65625 -18.359375 L 16.65625 -15.609375 L 6.609375 -3.46875 Z M 17.046875 -3.46875 "/></g></g></g><g fill="#5cb6f9" fill-opacity="1"><g transform="translate(74.730594, 25.269983)"><g><path d="M 16.390625 -3.40625 L 16.390625 0 L 2.171875 0 L 2.171875 -18.359375 L 16.0625 -18.359375 L 16.0625 -14.953125 L 6.40625 -14.953125 L 6.40625 -10.96875 L 14.921875 -10.96875 L 14.921875 -7.65625 L 6.40625 -7.65625 L 6.40625 -3.40625 Z M 16.390625 -3.40625 "/></g></g></g><g fill="#5cb6f9" fill-opacity="1"><g transform="translate(97.523958, 25.269983)"><g><path d="M 18.890625 0 L 18.859375 -11.015625 L 13.453125 -1.9375 L 11.546875 -1.9375 L 6.171875 -10.78125 L 6.171875 0 L 2.171875 0 L 2.171875 -18.359375 L 5.6875 -18.359375 L 12.5625 -6.953125 L 19.328125 -18.359375 L 22.828125 -18.359375 L 22.875 0 Z M 18.890625 0 "/></g></g></g></g></g><g fill="#f4f6fc" fill-opacity="1"><g transform="translate(167.415001, 190.124988)"><g><path d="M 2.140625 -6.390625 L 2.140625 -3.84375 L 5.796875 -3.84375 L 5.796875 -2.953125 L 2.140625 -2.953125 L 2.140625 0 L 1.09375 0 L 1.09375 -7.3125 L 6.25 -7.3125 L 6.25 -6.390625 Z M 2.140625 -6.390625 "/></g></g></g><g fill="#f4f6fc" fill-opacity="1"><g transform="translate(178.633551, 190.124988)"><g><path d="M 5.984375 0 L 4.40625 -2.25 C 4.207031 -2.226562 4.054688 -2.21875 3.953125 -2.21875 L 2.140625 -2.21875 L 2.140625 0 L 1.09375 0 L 1.09375 -7.3125 L 3.953125 -7.3125 C 4.890625 -7.3125 5.628906 -7.082031 6.171875 -6.625 C 6.722656 -6.175781 7 -5.554688 7 -4.765625 C 7 -4.191406 6.859375 -3.707031 6.578125 -3.3125 C 6.296875 -2.914062 5.898438 -2.628906 5.390625 -2.453125 L 7.125 0 Z M 3.90625 -3.109375 C 4.570312 -3.109375 5.078125 -3.25 5.421875 -3.53125 C 5.773438 -3.820312 5.953125 -4.234375 5.953125 -4.765625 C 5.953125 -5.285156 5.773438 -5.6875 5.421875 -5.96875 C 5.078125 -6.25 4.570312 -6.390625 3.90625 -6.390625 L 2.140625 -6.390625 L 2.140625 -3.109375 Z M 3.90625 -3.109375 "/></g></g></g><g fill="#f4f6fc" fill-opacity="1"><g transform="translate(190.811632, 190.124988)"><g><path d="M 4.390625 0.078125 C 3.648438 0.078125 2.984375 -0.0820312 2.390625 -0.40625 C 1.804688 -0.726562 1.34375 -1.171875 1 -1.734375 C 0.664062 -2.304688 0.5 -2.945312 0.5 -3.65625 C 0.5 -4.351562 0.664062 -4.988281 1 -5.5625 C 1.34375 -6.132812 1.804688 -6.582031 2.390625 -6.90625 C 2.984375 -7.226562 3.648438 -7.390625 4.390625 -7.390625 C 5.117188 -7.390625 5.78125 -7.226562 6.375 -6.90625 C 6.96875 -6.582031 7.429688 -6.132812 7.765625 -5.5625 C 8.097656 -5 8.265625 -4.363281 8.265625 -3.65625 C 8.265625 -2.945312 8.097656 -2.304688 7.765625 -1.734375 C 7.429688 -1.171875 6.96875 -0.726562 6.375 -0.40625 C 5.78125 -0.0820312 5.117188 0.078125 4.390625 0.078125 Z M 4.390625 -0.84375 C 4.929688 -0.84375 5.414062 -0.960938 5.84375 -1.203125 C 6.269531 -1.453125 6.601562 -1.789062 6.84375 -2.21875 C 7.09375 -2.644531 7.21875 -3.125 7.21875 -3.65625 C 7.21875 -4.1875 7.09375 -4.664062 6.84375 -5.09375 C 6.601562 -5.519531 6.269531 -5.851562 5.84375 -6.09375 C 5.414062 -6.332031 4.929688 -6.453125 4.390625 -6.453125 C 3.859375 -6.453125 3.375 -6.332031 2.9375 -6.09375 C 2.5 -5.851562 2.15625 -5.519531 1.90625 -5.09375 C 1.664062 -4.664062 1.546875 -4.1875 1.546875 -3.65625 C 1.546875 -3.125 1.664062 -2.644531 1.90625 -2.21875 C 2.15625 -1.789062 2.5 -1.453125 2.9375 -1.203125 C 3.375 -0.960938 3.859375 -0.84375 4.390625 -0.84375 Z M 4.390625 -0.84375 "/></g></g></g><g fill="#f4f6fc" fill-opacity="1"><g transform="translate(204.168271, 190.124988)"><g><path d="M 7.375 -7.3125 L 7.375 0 L 6.515625 0 L 2.140625 -5.453125 L 2.140625 0 L 1.09375 0 L 1.09375 -7.3125 L 1.953125 -7.3125 L 6.328125 -1.859375 L 6.328125 -7.3125 Z M 7.375 -7.3125 "/></g></g></g><g fill="#f4f6fc" fill-opacity="1"><g transform="translate(217.232879, 190.124988)"><g><path d="M 2.546875 -6.390625 L 0.046875 -6.390625 L 0.046875 -7.3125 L 6.078125 -7.3125 L 6.078125 -6.390625 L 3.578125 -6.390625 L 3.578125 0 L 2.546875 0 Z M 2.546875 -6.390625 "/></g></g></g><g fill="#f4f6fc" fill-opacity="1"><g transform="translate(227.950809, 190.124988)"><g><path d="M 6.390625 -0.90625 L 6.390625 0 L 1.09375 0 L 1.09375 -7.3125 L 6.25 -7.3125 L 6.25 -6.390625 L 2.140625 -6.390625 L 2.140625 -4.15625 L 5.796875 -4.15625 L 5.796875 -3.265625 L 2.140625 -3.265625 L 2.140625 -0.90625 Z M 6.390625 -0.90625 "/></g></g></g><g fill="#f4f6fc" fill-opacity="1"><g transform="translate(239.534403, 190.124988)"><g><path d="M 7.375 -7.3125 L 7.375 0 L 6.515625 0 L 2.140625 -5.453125 L 2.140625 0 L 1.09375 0 L 1.09375 -7.3125 L 1.953125 -7.3125 L 6.328125 -1.859375 L 6.328125 -7.3125 Z M 7.375 -7.3125 "/></g></g></g><g fill="#f4f6fc" fill-opacity="1"><g transform="translate(252.599011, 190.124988)"><g><path d="M 1.09375 -7.3125 L 4.171875 -7.3125 C 4.941406 -7.3125 5.625 -7.15625 6.21875 -6.84375 C 6.820312 -6.539062 7.289062 -6.113281 7.625 -5.5625 C 7.957031 -5.007812 8.125 -4.375 8.125 -3.65625 C 8.125 -2.9375 7.957031 -2.300781 7.625 -1.75 C 7.289062 -1.195312 6.820312 -0.765625 6.21875 -0.453125 C 5.625 -0.148438 4.941406 0 4.171875 0 L 1.09375 0 Z M 4.109375 -0.90625 C 4.703125 -0.90625 5.222656 -1.019531 5.671875 -1.25 C 6.117188 -1.476562 6.460938 -1.800781 6.703125 -2.21875 C 6.953125 -2.632812 7.078125 -3.113281 7.078125 -3.65625 C 7.078125 -4.195312 6.953125 -4.671875 6.703125 -5.078125 C 6.460938 -5.492188 6.117188 -5.816406 5.671875 -6.046875 C 5.222656 -6.273438 4.703125 -6.390625 4.109375 -6.390625 L 2.140625 -6.390625 L 2.140625 -0.90625 Z M 4.109375 -0.90625 "/></g></g></g><g fill="#f4f6fc" fill-opacity="1"><g transform="translate(265.809635, 190.124988)"><g/></g></g><g fill="#f4f6fc" fill-opacity="1"><g transform="translate(273.210929, 190.124988)"><g><path d="M 1.09375 -7.3125 L 4.171875 -7.3125 C 4.941406 -7.3125 5.625 -7.15625 6.21875 -6.84375 C 6.820312 -6.539062 7.289062 -6.113281 7.625 -5.5625 C 7.957031 -5.007812 8.125 -4.375 8.125 -3.65625 C 8.125 -2.9375 7.957031 -2.300781 7.625 -1.75 C 7.289062 -1.195312 6.820312 -0.765625 6.21875 -0.453125 C 5.625 -0.148438 4.941406 0 4.171875 0 L 1.09375 0 Z M 4.109375 -0.90625 C 4.703125 -0.90625 5.222656 -1.019531 5.671875 -1.25 C 6.117188 -1.476562 6.460938 -1.800781 6.703125 -2.21875 C 6.953125 -2.632812 7.078125 -3.113281 7.078125 -3.65625 C 7.078125 -4.195312 6.953125 -4.671875 6.703125 -5.078125 C 6.460938 -5.492188 6.117188 -5.816406 5.671875 -6.046875 C 5.222656 -6.273438 4.703125 -6.390625 4.109375 -6.390625 L 2.140625 -6.390625 L 2.140625 -0.90625 Z M 4.109375 -0.90625 "/></g></g></g><g fill="#f4f6fc" fill-opacity="1"><g transform="translate(286.421553, 190.124988)"><g><path d="M 6.390625 -0.90625 L 6.390625 0 L 1.09375 0 L 1.09375 -7.3125 L 6.25 -7.3125 L 6.25 -6.390625 L 2.140625 -6.390625 L 2.140625 -4.15625 L 5.796875 -4.15625 L 5.796875 -3.265625 L 2.140625 -3.265625 L 2.140625 -0.90625 Z M 6.390625 -0.90625 "/></g></g></g><g fill="#f4f6fc" fill-opacity="1"><g transform="translate(298.005147, 190.124988)"><g><path d="M 7.4375 -7.3125 L 4.234375 0 L 3.203125 0 L -0.015625 -7.3125 L 1.109375 -7.3125 L 3.75 -1.296875 L 6.390625 -7.3125 Z M 7.4375 -7.3125 "/></g></g></g></svg>